<svg width="34" height="36" viewBox="0 0 34 36" fill="none" xmlns="http://www.w3.org/2000/svg">
<path fill-rule="evenodd" clip-rule="evenodd" d="M30.1023 25.0871C28.5733 23.3892 28.3249 20.7378 29.3396 18.7146C30.1988 17.0014 30.6805 15.0798 30.6805 13.05C30.6805 5.84269 24.6082 0 17.1175 0C9.62686 0 3.55448 5.84269 3.55448 13.05C3.55448 15.034 4.01461 16.9145 4.83779 18.5983C5.83163 20.6311 5.55614 23.2801 4.01005 24.9635C2.09214 27.0518 0.709708 29.606 0.0695814 32.4272C-0.371172 34.3696 1.34594 36 3.41232 36H30.5876C32.654 36 34.3712 34.3697 33.9304 32.4272C33.3028 29.6615 31.9618 27.1521 30.1023 25.0871Z" fill="none"/>
</svg>
